<svg height="512pt" viewBox="-174 0 512 512" width="512pt" xmlns="http://www.w3.org/2000/svg"><path d="m97.070312 124.835938v-18.015626c12.566407-5.722656 21.328126-18.390624 21.328126-33.078124 0-14.683594-8.761719-27.351563-21.328126-33.074219v-25.667969c0-8.285156-6.71875-15-15-15-8.285156 0-15 6.714844-15 15v25.667969c-12.570312 5.722656-21.332031 18.390625-21.332031 33.074219 0 14.6875 8.761719 27.355468 21.332031 33.078124v18.015626c-38.117187 8.027343-67.070312 46.066406-67.070312 91.644531 0 14.75 3.117188 29.457031 9.019531 42.535156 2.425781 5.375 7.777344 8.828125 13.671875 8.828125h44.378906v52.246094h-23.527343c-8.28125 0-15 6.714844-15 15v161.910156c0 8.285156 6.71875 15 15 15h77.050781c8.285156 0 15-6.714844 15-15v-161.910156c0-8.285156-6.714844-15-15-15h-23.523438v-52.246094h44.375c5.898438 0 11.246094-3.457031 13.671876-8.832031 5.902343-13.074219 9.023437-27.78125 9.023437-42.53125-.003906-45.578125-28.957031-83.617188-67.070313-91.644531zm8.523438 357.164062h-47.050781v-131.910156h47.050781zm-17.195312-408.257812c0 3.492187-2.839844 6.332031-6.328126 6.332031-3.492187 0-6.332031-2.839844-6.332031-6.332031 0-3.488282 2.839844-6.328126 6.332031-6.328126 3.488282 0 6.328126 2.839844 6.328126 6.328126zm42.65625 164.101562h-97.96875c-2.03125-6.832031-3.085938-14.078125-3.085938-21.363281 0-34.855469 23.355469-63.210938 52.066406-63.210938 28.710938 0 52.070313 28.355469 52.070313 63.210938 0 7.285156-1.050781 14.53125-3.082031 21.363281zm0 0"/></svg>