<svg width="150" height="150" viewBox="0 0 180 180" fill="none" xmlns="http://www.w3.org/2000/svg">
<path d="M72.9557 35.9262C72.7811 35.9262 72.6137 35.955 72.4463 35.9784V35.9262H53.8397C52.8071 35.9262 51.8168 36.3364 51.0867 37.0666C50.3565 37.7967 49.9463 38.787 49.9463 39.8196V39.8286H49.9445V140.166H49.9463L49.9445 140.182C49.9445 142.331 51.6887 144.074 53.8379 144.074H72.9539C73.986 144.074 74.9759 143.664 75.7057 142.934C76.4355 142.204 76.8455 141.214 76.8455 140.182L76.8437 140.166H76.8455V39.8286L76.8473 39.8196C76.8473 38.7873 76.4374 37.7973 75.7076 37.0672C74.9778 36.3371 73.988 35.9267 72.9557 35.9262V35.9262Z" fill="#6456AB"/>
<path d="M130.052 140.166V39.8286L130.054 39.8196C130.054 38.7873 129.644 37.7973 128.914 37.0672C128.184 36.3371 127.194 35.9267 126.162 35.9262C125.987 35.9262 125.82 35.955 125.653 35.9784V35.9262H107.046C106.013 35.9262 105.023 36.3364 104.293 37.0666C103.563 37.7967 103.153 38.787 103.153 39.8196V39.8286H103.151V140.166H103.153L103.151 140.182C103.151 142.331 104.895 144.074 107.044 144.074H126.157C127.189 144.074 128.179 143.664 128.908 142.934C129.638 142.204 130.048 141.214 130.048 140.182C130.052 140.177 130.05 140.171 130.052 140.166Z" fill="#6456AB"/>
</svg>
