<svg width="409" height="484" viewBox="0 0 409 484" fill="none" xmlns="http://www.w3.org/2000/svg">
<g id="girl">
<path id="Vector" d="M239.32 346.21C230.53 349.31 209.8 354.86 166.95 347.54C165.656 347.393 164.345 347.558 163.127 348.021C161.91 348.484 160.82 349.231 159.95 350.2C159.95 350.2 158.95 371.64 149.63 375.06C142.12 377.8 85.35 374 49.31 379.15C28.14 382.15 -4.6 374.15 0.670004 398.7C4.21 415.26 29.07 431.29 70.42 443.63C94.71 450.88 130.42 465.15 181.29 469.88C190.21 470.7 198.58 475.75 221.63 473.38C229.81 472.53 252.16 463.18 260.76 461.38C299.04 453.29 402.56 421.11 408.24 396.5C412.88 376.4 387.24 364.02 353.78 371.74C353.78 371.74 264.63 375.96 258.63 375.1C252.63 374.24 245.76 349.36 245.76 349.36C245.76 349.36 242.4 345.13 239.32 346.21Z" fill="#705FBF"/>
<path id="Vector_2" d="M348.08 386.46C335 385.86 258.88 393.59 229.75 401.92C229.75 401.92 250.56 395.97 249.96 388.24C249.96 388.24 236.29 397.76 223.2 400.13C223.2 400.13 216.07 392.4 201.8 394.19C201.8 394.19 198.14 394.05 179.71 398.19C179.27 398.29 170.94 399.19 170.49 399.34C151.65 395.89 117.7 389.22 117.7 389.22C121.7 396.59 130.27 401.22 138.14 404.08C121.88 406.03 103.61 406.53 91.78 403.67C74.54 399.51 57.29 396.54 53.78 397.73C53.78 397.73 81.13 408.43 100.16 409.62C119.19 410.81 129.89 422.11 135.24 423.89C140.59 425.67 177.47 434.6 191.14 424.49C204.81 414.38 217.31 409.62 223.85 409.62C230.39 409.62 240.5 407.84 257.15 403.67C273.8 399.5 312.41 390 337.38 390C341.5 390 345.06 389.91 348.13 389.78C363.67 389.08 366.69 386.97 366.69 386.97C366.69 386.97 361.17 387.05 348.08 386.46Z" fill="#6456AB"/>
<path id="Vector_3" d="M224.6 441C224.6 441 235.21 441 245.82 451C256.43 461 270.82 459.12 270.82 459.12C270.82 459.12 255.82 462.86 248.98 464.12C242.14 465.38 224.6 441 224.6 441Z" fill="#6456AB"/>
<path id="Vector_4" d="M162.81 351.72C162.81 351.72 194.02 372.94 246.44 350.47L243.32 346.1C243.32 346.1 210.4 361.47 167 347.54C167 347.54 157.82 349.84 162.81 351.72Z" fill="#6456AB"/>
<path id="Vector_5" d="M248.81 406.09C248.81 406.09 311.51 409.78 312.74 430.09L310.9 437.46C310.9 437.46 325.65 426.4 312.13 417.18C298.61 407.96 258.65 403 248.81 406.09Z" fill="#6456AB"/>
<path id="Vector_6" d="M218.29 437.72C218.29 437.72 206.29 422.27 207.99 415.41C207.99 415.41 198.55 405.11 185.68 418.84C172.81 432.57 155.68 422.27 142.78 419.7L129.1 421.49C129.1 421.49 133.1 423.49 143.37 429.49C153.64 435.49 196.84 441.16 207.14 441.16L222.58 440.3L218.29 437.72Z" fill="#F9D2CD"/>
<path id="Vector_7" d="M222.58 440.29L218.29 437.72C218.29 437.72 206.29 422.27 207.99 415.41C207.418 414.829 206.784 414.313 206.1 413.87C205.639 417.786 206.298 421.753 208 425.31C212.82 435.84 204 437.59 201 438.03C198.5 438.39 166.93 435.54 146.53 430.93C160.47 436.37 197.71 441.15 207.18 441.15L222.58 440.29Z" fill="#FAC5C0"/>
<path id="Vector_8" d="M202 444.58C202 444.58 220 433.43 228.6 444.58C237.2 455.73 234.66 460.46 268.98 461.31C285.5 461.73 286.34 462.87 290.32 466.85C294.61 471.13 301.25 478.36 297.24 481.48C289.52 487.48 280.94 474.61 281.8 474.61C281.8 474.61 257.73 475.97 236.28 473.39C214.83 470.81 216.58 470.32 216.58 470.32C216.58 470.32 197.7 463.46 202 444.58Z" fill="#F9D2CD"/>
<path id="Vector_9" d="M254.9 464.34C269.57 462.46 278.74 462.84 286.32 463.54C283.66 462.14 279.5 461.54 268.97 461.31C234.65 460.46 237.17 455.74 228.59 444.58C226.988 442.455 224.732 440.916 222.17 440.2C224.34 444.29 227.26 449.85 229.03 453.38C232.1 459.52 237.8 466.54 254.9 464.34Z" fill="#FAC5C0"/>
<path id="Vector_10" d="M391.38 366.28L385.54 371.21C385.54 371.21 384.65 366.28 385.54 362.69C385.54 362.69 395.86 359.55 392.27 356.41C388.68 353.27 377.47 355.96 372.09 355.96C366.71 355.96 354.59 358.65 351.9 360.9C349.21 363.15 340.23 352.37 334.4 340.26C328.57 328.15 298.51 293.15 290.88 279.26C283.25 265.37 273.77 178.66 257.17 171.48C240.57 164.3 225.23 152.38 215.93 142.93C206.63 133.48 210.57 113.56 210.57 101.6L189 102C189 102 196.32 142.1 179.72 150.18C163.12 158.26 142.79 160.77 139.2 188.18C139.2 188.18 127.98 255.03 123.94 272.52C119.9 290.01 96.13 310.66 89.85 322.32C83.57 333.98 68.35 369 57.58 377.05C57.58 377.05 51.75 374.36 40.98 374.36C30.21 374.36 23.49 371.66 23.49 371.66C23.49 371.66 21.24 376.15 26.63 378.84L28.87 379.74C28.87 379.74 21.69 385.57 21.69 387.82C21.968 390.843 22.4187 393.848 23.04 396.82C23.04 396.82 20.46 390.54 18.22 387.82C18.22 387.82 15.41 384.23 11.82 386.47C11.82 386.47 17.2 392.75 18.55 397.69C19.4506 400.811 20.7978 403.785 22.55 406.52C22.55 406.52 24.86 413.84 28.9 412.52C28.9 412.52 32.9 417.46 36.53 416.52C36.53 416.52 39.67 413.83 40.12 412.52C40.5798 413.221 41.2173 413.787 41.9674 414.161C42.7175 414.536 43.5535 414.704 44.39 414.65C47.53 414.65 58.06 402.65 59.86 400.41C61.66 398.17 71.94 386 71.94 386C78.07 377.864 84.8201 370.215 92.13 363.12C103.79 351.9 133.85 314.67 138.34 289.12C138.34 289.12 155.08 240.62 155.97 235.24C155.97 235.24 176.34 241.64 170.6 309.03C169.6 320.58 166.79 332.94 162.6 347.89C162.6 347.89 189.08 370.65 244.19 348.07C244.19 348.07 216.93 284.2 245.46 226.67L248.63 219.06C248.63 219.06 262.19 270.73 271.63 285.06C271.63 285.06 285.98 330.37 339.37 371.64C339.37 371.64 356.45 388.28 362.28 391.42C368.11 394.56 372.13 393.63 374.82 390.94C374.82 390.94 380.65 390.49 382.44 385.55C382.44 385.55 386.44 384.21 390.52 376.55C392.752 372.226 395.459 368.165 398.59 364.44C398.59 364.44 397.21 361.35 391.38 366.28ZM40.08 384.13C39.72 384.13 39.9 383.66 38.34 386.26C37.3457 388.129 35.6863 389.556 33.69 390.26C33.69 390.26 37.58 385.53 35.1 384.87C35.1 384.87 32.75 384.36 30.1 387.18V385.69C30.1 385.69 34.1 382.32 34.32 380.3C34.32 380.3 36.61 383.24 39.89 383.3C40 383.3 40.14 384.13 40.08 384.13V384.13ZM379 367.68C378.685 366.888 378.12 366.22 377.39 365.78C374.29 365.78 375.11 367.68 375.11 367.68L371.45 365.11C370.33 366.17 371.23 364.96 371.23 364.96L371.45 365.11C371.6 364.98 371.78 364.8 372.01 364.57C372.475 364.021 373.089 363.62 373.778 363.414C374.467 363.208 375.2 363.207 375.89 363.41C376.484 363.739 377.151 363.912 377.83 363.912C378.509 363.912 379.176 363.739 379.77 363.41C380.16 367.68 379 367.68 379 367.68Z" fill="#F9D2CD"/>
<path id="Vector_11" d="M168.51 323.63C167.08 331.05 165.07 339 162.57 347.88C162.57 347.88 166.83 351.54 175.49 354.47V345.74C185.98 350.4 209.86 349.24 209.86 349.24C220.585 346.534 230.775 342.033 240 335.93C239.3 333.59 238.57 330.93 237.85 328.07C220.27 334.49 185.23 327.57 168.51 323.63Z" fill="#FAC5C0"/>
<path id="Vector_12" d="M217.09 221.57C217.09 221.57 210.09 228.52 202.42 226.57L200.49 223.87L200.2 220.2C200.2 220.2 198.54 224.58 199.33 226.95C199.33 226.95 189.13 228.9 184.39 226.53C179.65 224.16 203.39 248.66 219.96 232.06C231.58 220.44 243.21 186.72 249.13 167.55C242.886 164.202 236.905 160.385 231.24 156.13C227.89 174.1 231.75 200.34 217.09 221.57Z" fill="#FAC5C0"/>
<path id="Vector_13" d="M366.69 387L370.55 383.14C370.55 377.8 374.99 374.24 374.99 374.24C374.691 372.435 374.487 370.616 374.38 368.79C373.38 367.27 368.38 372.79 368.38 372.79C345.04 357.88 349.62 373.3 340.49 367.72C331.36 362.14 299.42 328.72 295.37 323.1C291.32 317.48 284.21 294.7 275.08 278.99C265.95 263.28 252.77 204.99 252.77 204.99C253.414 194.093 255.7 183.355 259.55 173.14C258.838 172.455 258.017 171.894 257.12 171.48C256.52 171.23 255.94 170.95 255.34 170.68C250.34 181.93 244.34 197.6 242.63 211.58C242.16 215.58 242.84 221.5 244.39 228.76C244.71 228.07 245.04 227.37 245.39 226.68L248.56 219.07C248.56 219.07 262.12 270.74 271.56 285.07C271.56 285.07 285.91 330.38 339.3 371.65L339.96 372.31C344.07 373.16 347.59 373.77 350.15 374.31C359.81 376.35 366.69 387 366.69 387Z" fill="#FAC5C0"/>
<path id="Vector_14" d="M162.57 239.45C157.57 207.32 148.94 187.3 142.48 176.11C140.823 179.952 139.732 184.015 139.24 188.17C139.24 188.17 139.04 189.32 138.7 191.36C141.22 194.78 144.41 201 145.84 211.56L147.36 233.87L131.64 286.6C131.64 286.6 114.4 308.41 109.33 322.1C104.26 335.79 74.33 378.79 68.5 384.1C53.86 397.43 59.77 373.19 51.42 387.45C48.9 391.75 54.06 389.6 33.78 390.61C33.78 390.61 34.29 396.1 35.78 397.12C35.78 397.12 37.3 395.6 39.33 399.12C41.36 402.64 42.33 406.72 46.94 406.72C48.44 406.72 50.2 405.85 53.53 405.72C55.7148 404.04 57.8078 402.244 59.8 400.34C61.59 398.1 71.91 385.98 71.91 385.98C78.0399 377.844 84.7901 370.195 92.1 363.1C103.76 351.88 133.82 314.65 138.31 289.1C138.31 289.1 155.05 240.6 155.94 235.22C155.94 235.22 159.45 239.91 162.82 251.59C163.222 247.548 163.138 243.472 162.57 239.45V239.45Z" fill="#FAC5C0"/>
<path id="Vector_15" d="M174.21 240.21L190.81 236.52L187.12 219C179.74 190.42 191.73 161.83 198.19 142.47C201.43 132.72 206.08 128.35 209.9 126.41C209.28 117.82 210.57 108.41 210.57 101.58L189 102C189 102 196.32 142.1 179.72 150.18C176.72 151.63 173.64 152.9 170.53 154.18C168.85 188.43 174.21 240.21 174.21 240.21Z" fill="#FAC5C0"/>
<path id="Vector_16" d="M166.65 76.13C166.65 76.13 172.8 106.98 199.71 113.77C199.71 113.77 226.63 115.42 235.09 75.31C235.09 75.31 232.77 19.31 203.55 30.46C203.55 30.46 166.65 10.71 166.65 76.13Z" fill="#F9D2CD"/>
<path id="Vector_17" d="M234 75.31C234 75.31 231.86 19.31 204.8 30.46C204.8 30.46 175.8 13.61 168.67 50.92C170.97 54.28 177.42 60.86 181.83 63.36C192.65 69.46 201.29 68.54 201.29 68.54C201.29 68.54 180.17 61.12 177.15 49.79C177.15 49.79 189.67 65.2 205.52 66.94C205.52 66.94 187.39 55.83 183.12 46.67C183.12 46.67 200.85 54.36 209.12 59.29C217.39 64.22 221.67 68.29 222.93 70.72L221.42 74.64C221.42 74.64 221.92 98.64 214.13 106.47C211.452 109.03 208.481 111.265 205.28 113.13C212.79 111.59 228.24 105 234 75.31Z" fill="#FAC5C0"/>
<path id="Vector_18" d="M30.53 386.73C29.422 387.744 28.5853 389.019 28.0963 390.439C27.6072 391.859 27.4813 393.379 27.73 394.86C28.6158 400.482 29.0173 406.169 28.93 411.86C27.5991 405.943 26.5976 399.958 25.93 393.93C26.0731 392.287 26.1232 390.638 26.08 388.99L25 388C25.6794 387.976 26.3574 388.078 27 388.3C27.45 388.6 26.7 385.91 26.7 385.91C26.7 385.91 27.59 387.55 28.49 387.1C29.1317 386.819 29.8305 386.692 30.53 386.73Z" fill="#FAC5C0"/>
<path id="Vector_19" d="M23 396.55C23 396.55 23.45 404.55 23.6 406.07C23.821 407.581 24.1181 409.079 24.49 410.56C24.49 410.56 21.81 406.97 22.1 403.23C22.39 399.49 21.1 394.03 20.43 391.06L23 396.55Z" fill="#FAC5C0"/>
<path id="Vector_20" d="M35.81 397.14C35.81 397.14 33.81 397.42 35.1 401.39C36.5584 405.18 38.2276 408.886 40.1 412.49C40.1 412.49 38.58 414.29 37.59 415.62C37.59 415.62 35.93 417.62 34.28 415.29C34.28 415.29 36.1 415.45 36.28 413.8C36.28 413.8 35.79 413.8 34.79 412.97C34.79 412.97 35.62 412.97 35.62 412.31C35.62 412.31 34.62 412.97 33.97 407.84C33.32 402.71 32.23 397.52 35.81 397.14Z" fill="#FAC5C0"/>
<path id="Vector_21" d="M44.84 385C42.84 383.84 39.52 383.32 37.3 382.71C37.3 382.71 41.01 386.48 43.36 386.48C45.71 386.48 46.64 386.31 49.92 384.48C49.92 384.46 46 385.61 44.84 385Z" fill="#FAC5C0"/>
<path id="Vector_22" d="M392.18 366.05C390.295 368.996 388.691 372.113 387.39 375.36C386.02 379.36 383.83 383.85 382.6 385.08C382.6 385.08 384.79 378.92 385.06 375.5C385.093 374.114 385.278 372.736 385.61 371.39C385.61 371.39 390.12 366.88 392.18 366.05Z" fill="#FAC5C0"/>
<path id="Vector_23" d="M379.31 368.25C379.306 369.763 379.444 371.273 379.72 372.76C380.002 374.956 379.863 377.186 379.31 379.33C378.9 380.7 375.75 389.33 375.75 389.33C375.75 389.33 378.9 384.67 379.75 381.66C380.6 378.65 381 372.21 379.31 368.25Z" fill="#FAC5C0"/>
<path id="Vector_24" d="M374.38 374.82C374.796 374.841 375.188 375.024 375.471 375.331C375.753 375.638 375.904 376.043 375.89 376.46C376.03 378.1 374.52 383.3 373.56 385.46C372.6 387.62 372.56 391.35 370.82 393.13C370.82 393.13 373.01 392.45 374.11 386.83C374.11 386.83 378.22 378.35 377.11 375.61C376 372.87 374.11 373.86 374.38 374.82Z" fill="#FAC5C0"/>
<path id="Vector_25" d="M28.8401 379.67C28.8401 379.67 32.3101 377.22 33.0301 376.81C33.7501 376.4 34.66 377.63 34.56 378.75L34.66 379.75C34.66 379.75 37.32 377.6 34.66 376.37C32 375.14 29.04 377.8 27 376.37C25.9393 375.667 24.9362 374.882 24 374.02C24 374.02 23.7 377.09 26 378.42C28.3 379.75 28.8401 379.67 28.8401 379.67Z" fill="#FAC5C0"/>
<path id="Vector_26" d="M391.38 357.62C390.13 359.18 387.33 359.44 386.38 359.49C386.7 358.25 386.7 356.89 385.16 356.75C385.16 356.75 381.16 356.49 379.91 360.03C378.27 360.22 374.71 363.3 374.71 363.3C375.19 363.21 377.5 363.88 378.17 363.88C378.732 363.823 379.278 363.66 379.78 363.4C379.777 362.585 379.888 361.774 380.11 360.99C380.592 359.807 381.478 358.833 382.61 358.24C382.61 358.24 384.77 357.36 385.34 358.24C385.781 359.279 385.879 360.432 385.62 361.53C385.62 361.53 385.85 361.1 386.09 360.53C385.953 361.263 385.773 361.988 385.55 362.7C385.55 362.7 390.26 360.26 391.39 358.76C392.52 357.26 391.38 357.62 391.38 357.62Z" fill="#FAC5C0"/>
<path id="Vector_27" d="M355.68 366.55C355.68 366.55 360.94 371.62 366.01 368.43L370.7 365.43C370.7 365.43 365.64 368.43 363.38 368.24C360.781 367.834 358.21 367.27 355.68 366.55Z" fill="#FAC5C0"/>
<path id="Vector_28" d="M184.52 146.72C184.52 146.72 180.04 144.84 171.62 151.02C163.2 157.2 147.54 159 139 179.66C139 179.66 137.12 184.59 138.8 187.96C138.8 187.96 149.3 197.36 151.51 222.48C153.33 243.11 152.72 235.48 154.51 249.18C155.72 258.28 165.19 266.47 165.43 269.18C166.9 286.42 170.13 299.7 169.69 306.52C168.96 317.83 164.38 320.45 163.92 332.92C163.92 332.92 202.73 361.83 242.3 332.1C243.04 331.55 235.74 321.65 234.05 303.22C233.18 293.71 235.41 281.93 237.63 267.97C238.5 262.48 246.73 264.97 249.15 247.97C249.15 247.97 248.68 220.38 249.76 207.92C252.27 180 260.35 174 260.35 174C260.35 174 264.53 170.89 248.81 162.47C233.09 154.05 230.59 145.4 221 143.72L216.21 142.91C216.21 142.91 224.61 151.77 228 154C231.39 156.23 233.06 178 228.92 201.54C226.92 212.95 220.68 228.88 201.02 228.88C181.36 228.88 178.94 211.65 177.81 201.54C176.68 191.43 177.81 152.68 177.81 152.68C177.81 152.68 184.52 147.28 184.52 146.72Z" fill="white"/>
<path id="Vector_29" d="M189.57 260.33C176.37 264.46 164 257.03 158.22 245.48C156.006 240.849 154.043 236.102 152.34 231.26C153.23 241.02 153.09 237.97 154.59 249.18C155.59 256.94 162.66 264.03 164.86 267.65C181.15 268 189.57 260.33 189.57 260.33Z" fill="#F2F2F2"/>
<path id="Vector_30" d="M237.43 257.86C225.88 261.98 213.5 261.16 206.9 252.08C206.9 252.08 214.33 270.24 229.18 268.59C232.173 268.239 235.135 267.661 238.04 266.86C239.81 262.77 247.04 263.65 249.23 247.97C249.23 247.97 249.23 246.39 249.18 243.85C246.51 249.94 242.64 256 237.43 257.86Z" fill="#F2F2F2"/>
<path id="Vector_31" d="M184.47 221.21C184.47 221.21 197.16 255.51 195.28 268.66C193.4 281.81 189.17 287.92 185.41 285.57C185.41 285.57 194.81 282.75 184.94 250.34C175.07 217.93 178.37 212.76 178.37 212.76C178.37 212.76 182.59 220.74 184.47 221.21Z" fill="#F2F2F2"/>
<path id="Vector_32" d="M204.54 70.57C203.54 68.87 212.81 60.06 231.11 62.32C231.11 62.32 234.67 62.9 235.21 64.03C229.205 62.8975 223.023 63.1299 217.12 64.71C211.54 66.17 205.51 72.27 204.54 70.57Z" fill="#484159"/>
<path id="Vector_33" d="M194.63 71C195.73 70 184.32 61.31 171.06 63.73C167.26 64.42 164.41 64.98 163.89 66.12C169.592 64.5856 175.598 64.5856 181.3 66.12C190.27 68.74 192.91 72.48 194.63 71Z" fill="#484159"/>
<path id="Vector_34" d="M206.13 76.15C206.13 76.15 211.06 65.27 222.02 67.78C224.657 68.976 227.458 69.7715 230.33 70.14C230.33 70.14 220.09 74.57 216.42 75.73C212.75 76.89 206.13 76.15 206.13 76.15Z" fill="#F5BDB8"/>
<path id="Vector_35" d="M192.24 76.53C192.24 76.53 186.53 68.58 179.75 68.82C175.595 68.9819 171.602 70.4754 168.36 73.08C168.36 73.08 185 80.64 192.24 76.53Z" fill="#F5BDB8"/>
<path id="Vector_36" d="M193.61 75.72C191.144 76.9839 188.368 77.5148 185.61 77.25C181.39 76.7 175.55 74.06 170.22 73.51C168.968 73.6224 167.735 73.8911 166.55 74.31C169.079 74.3792 171.577 74.8762 173.94 75.78C177.69 77.32 181.03 79.29 185.69 78.69C185.69 78.69 188.95 79.22 189.31 80.43C189.31 80.43 190.44 78.61 188.96 78.32C189 78.32 192.86 76.94 193.61 75.72Z" fill="#484159"/>
<path id="Vector_37" d="M204.34 75.82C204.34 75.82 210.79 76.62 215.46 75.47C220.13 74.32 225.77 70.68 229.37 70.18L232.14 69.96C230.316 70.3529 228.584 71.0931 227.04 72.14C224.93 73.71 219.57 78.53 213.63 77.6C213.006 77.5552 212.38 77.6464 211.794 77.8674C211.209 78.0884 210.679 78.4339 210.24 78.88C210.24 78.88 209.86 77.77 210.39 77.29C210.39 77.29 205.53 77.34 204.34 75.82Z" fill="#484159"/>
<path id="Vector_38" d="M199.51 0.839996C178.02 0.839996 154.74 17.24 154.74 49.16C154.74 85.04 176.05 100.05 186.04 108.65C187.26 109.7 190.34 115.65 190.9 115.75C191.46 115.85 190.18 111.3 190.19 110.08C190.19 110.08 177.34 100.08 171.97 85.08C166.84 70.8 168.78 54.87 170.29 50.17C170.29 50.17 181.06 65.58 199.04 68.05C199.04 68.05 177.51 58.24 175.76 49.45C175.76 49.45 189.76 66.92 205.45 66.92C205.45 66.92 181.45 54.52 182.09 45.04C182.09 45.04 223.09 60.54 228.62 71.42C234.32 82.67 221.12 104.6 209.88 112L209.94 113.15C209.94 113.15 235.03 98.48 240.55 69.44C248.83 25.89 221 0.839996 199.51 0.839996Z" fill="#484159"/>
<path id="Vector_39" d="M171.42 26.69C171.42 26.69 166.77 39.69 169.79 47.16C169.79 47.16 178.09 59.49 187 62.64C187 62.64 173.55 53.23 172.33 45.64C172.33 45.64 172.33 42.17 173.25 42.17C173.25 42.17 189.53 63.29 199.05 65.17C199.05 65.17 179.39 53.83 176.05 39.96C176.05 39.96 188.34 37.43 203.4 47.52C203.4 47.52 231.35 61.71 232.58 73.05C232.58 73.05 231.68 50.6 186.58 39.28C176.16 36.66 174.25 29.47 175.4 26.72C186.944 31.5477 198.738 35.757 210.73 39.33C231.62 45.63 248 63.16 232.4 85.33C219.14 104.18 218.72 103.62 216.57 107.41C216.57 107.41 227.88 93.86 233.72 85.98C239.56 78.1 245.78 51.73 223.35 40.98C200.92 30.23 173.56 29.14 177.86 18.74C177.86 18.74 197.63 22.45 213.78 27.46C228.14 31.92 234.29 47.09 234.29 47.09C234.29 47.09 229.09 27.68 204.22 23.54C173.22 18.38 180.41 13.73 181.48 10.67C183.2 5.80001 192 0.58 205.2 5C218.4 9.42 234.45 23.41 238.13 34.44C239.2 37.63 240.04 42.95 241.61 47.68C238.14 18.62 216.89 0.850006 199.51 0.850006C194.547 0.885207 189.621 1.69842 184.91 3.26001C178.55 9.14001 172 17.37 171.42 26.69Z" fill="#555170"/>
<path id="Vector_40" d="M167.6 43.23C167.6 43.23 156.94 63.94 164.47 78.78C164.47 78.78 173.33 93.01 175.14 94.56C175.14 94.56 152.71 75.09 162.35 52.83C163.666 49.4112 165.432 46.1829 167.6 43.23V43.23Z" fill="#555170"/>
<path id="Vector_41" d="M169 22.82C158.94 29.27 156.68 54.57 156.68 54.57C156.745 45.6518 157.87 36.7729 160.03 28.12C163.19 19.12 174.57 8.98999 183.31 4.73999C183.83 4.22999 184.31 3.74 184.87 3.25C167.36 8.94 154.7 24.25 154.7 49.16C154.615 58.6659 156.576 68.0788 160.45 76.76C159.45 72.03 159.98 78.62 158.17 63.52C156.05 45.58 169 22.82 169 22.82Z" fill="#555170"/>
<path id="Vector_42" d="M188.46 110.24C186.127 107.251 183.34 104.646 180.2 102.52C180.2 102.52 197.35 118.1 177.92 146.79C156.92 177.88 152.92 171.03 159.71 213.19C166.5 255.35 200.12 281.69 175.65 290.13C175.65 290.13 195.57 294.34 191.01 266.41C186.45 238.48 176.79 204.76 179.63 185.78C182.13 169.11 194.63 127.78 190.7 113.86C190.26 112.27 189.49 111.65 188.46 110.24Z" fill="#484159"/>
<path id="Vector_43" d="M183.78 142.22C183.78 142.22 161.04 167.22 160.06 188.46C158.28 226.56 192.26 267.67 187.39 281.66C187.39 281.66 195.39 279.4 176.52 233.16C157.65 186.92 161.78 182.32 175.87 156.82C181.35 146.92 183.78 142.22 183.78 142.22Z" fill="#555170"/>
<path id="Vector_44" d="M198.39 93C198.39 93 194.66 90 193.8 91.62C192.94 93.24 195.23 92.08 196.38 92.54C197.018 92.8082 197.698 92.9638 198.39 93V93Z" fill="#F5BDB8"/>
<path id="Vector_45" d="M201.26 92.75C201.723 92.15 202.338 91.6846 203.041 91.4015C203.744 91.1185 204.51 91.0283 205.26 91.14C205.26 91.14 206.69 91.6 205.83 92.29C204.97 92.98 203.55 91.83 201.26 92.75Z" fill="#F5BDB8"/>
<path id="Vector_46" d="M205.9 103.84C205.9 104.61 203.39 105.22 200.3 105.22C197.21 105.22 194.71 104.61 194.71 103.84C194.71 103.07 197.21 102.46 200.3 102.46C203.39 102.46 205.9 103.08 205.9 103.84Z" fill="#FAC5C0"/>
<path id="Vector_47" d="M200 97.27C200 97.27 198.23 95.38 194.84 96.77C191 98.35 192.1 98.45 188.99 98.99C190.163 99.3923 191.202 100.112 191.99 101.07C192.92 102.45 194.42 103.88 199.99 103.88C206.08 103.88 206.39 102.69 207.38 101.46C208.232 100.412 209.322 99.5818 210.56 99.04C210.56 99.04 206.65 97.76 204.21 96.77C201.44 95.64 200 97.17 200 97.27Z" fill="#EA61AF"/>
<path id="Vector_48" d="M187.14 98.79C187.14 98.79 189.6 98.89 192.55 98.89C195.5 98.89 198.7 99.28 200.05 99.28C201.4 99.28 207.05 98.79 208.53 98.89C209.855 98.8765 211.174 98.7087 212.46 98.39C211.383 98.9277 210.218 99.2665 209.02 99.39C205.82 99.59 200.78 99.59 199.92 100.48C199.92 100.48 197.59 99.29 191.81 99.39L187.14 98.79Z" fill="#CC5598"/>
<path id="Vector_49" d="M205.7 101.45C205.7 101.72 203.8 101.95 201.46 101.95C199.12 101.95 197.22 101.72 197.22 101.45C197.22 101.18 199.12 100.96 201.46 100.96C203.8 100.96 205.7 101.18 205.7 101.45Z" fill="#FF82C9"/>
<path id="Vector_50" d="M196.68 75.08C196.68 75.08 198.15 84.87 197.68 89.86C197.68 89.86 198.41 93.44 199.74 91.16C201.07 88.88 199.71 77.57 196.68 75.08Z" fill="#FAC5C0"/>
</g>
</svg>
