<svg width="560" height="480" viewBox="0 0 560 480" fill="none" xmlns="http://www.w3.org/2000/svg">
<path d="M49.31 334.89C48.23 312.05 50.22 288.34 41.25 267.14C33 247.7 16 231.55 12.72 210.83C9.29999 189.21 22 168 38.3 152.55C54.6 137.1 74.57 125.75 91.45 110.94C118.2 87.48 136.45 56.12 164.16 33.7C192.97 10.39 231.39 -1.83001 269.16 0.299993C306.93 2.42999 343.52 18.92 369.23 45.3C393.38 70.1 408.01 102.9 435.23 124.6C456.67 141.67 486.09 152.3 497.38 176.6C506.59 196.46 500.64 219.46 493.65 240.12C486.66 260.78 478.65 282.62 484.14 303.68C489.93 325.82 510.25 345.51 505.48 367.86C502.39 382.31 487.39 421.58 472.74 426.34C453.04 426.34 97.38 426.34 77.68 425.34C56 417.8 50.19 353.46 49.31 334.89Z" fill="#F8EAF9"/>
<path d="M317.07 478.06C317.07 478.06 350.22 455.11 356.82 450.29C372.92 438.53 390.52 430.57 407.03 424.94L408.27 412.39L420 420.91C440 415.21 457.18 412.7 466.11 410.36C479.78 406.79 508.35 392.02 529.61 372.93L511.89 368.59L540.04 362.52C546.17 355.58 551.04 348.29 553.67 340.92C560.18 322.92 559.92 303.92 557.97 285.77L551.61 226.33C549.31 251.33 546.29 278.33 531.46 298.53C524.299 308.039 515.007 315.736 504.33 321L492.33 337.33L497.25 324.33C493.305 325.97 489.273 327.389 485.17 328.58C468.11 333.58 450.79 335.2 433.74 340.2C417.53 344.27 401.13 353.35 386.74 363.83C360.93 382.57 345.43 404.06 331.68 435.61C328.77 442.1 317.07 478.06 317.07 478.06Z" fill="url(#paint0_linear)"/>
<path d="M315.14 479.21C315.395 479.283 315.666 479.265 315.909 479.159C316.152 479.053 316.35 478.866 316.47 478.63C316.99 477.76 368.71 392.26 403.6 387.93C474.19 379.17 518.6 359.17 532.07 330.1C550.52 290.23 552.94 247.83 552.96 247.41C552.987 247.264 552.981 247.115 552.942 246.972C552.904 246.829 552.835 246.696 552.739 246.583C552.644 246.471 552.524 246.38 552.389 246.319C552.255 246.258 552.108 246.228 551.96 246.23C551.638 246.283 551.345 246.448 551.132 246.694C550.918 246.941 550.797 247.254 550.79 247.58C550.79 248 548.38 289.83 530.18 329.14C517.18 357.29 473.4 376.75 403.67 385.41C367.67 389.88 316.89 473.8 314.74 477.41C314.561 477.675 314.484 477.996 314.522 478.314C314.561 478.632 314.713 478.925 314.95 479.14C315.011 479.169 315.075 479.193 315.14 479.21V479.21Z" fill="white"/>
<path d="M219.24 284.73C217.8 282.82 221.79 276.73 222.8 274.98C226.66 268.28 228.61 262.36 226.98 254.62C226.038 250.89 224.183 247.453 221.58 244.62C219.58 242.36 216.05 240.24 214.89 237.37C212.45 231.3 224.83 223.37 227.4 218.56C230.56 212.65 228.6 204.93 224.96 199.74C223.502 197.873 221.769 196.238 219.82 194.89C217.59 193.17 219.82 187.14 220.36 184.32C221.61 178.14 222.63 173.09 219.36 167.32C215.79 160.95 206.41 157.9 204.02 151.32C202.59 147.42 203.47 143.32 202.54 139.32C201.707 135.786 200.309 132.409 198.4 129.32C194.7 123.32 188.04 122.32 181.71 123.97C176.22 125.42 170.07 129.97 169.49 135.97C169.368 138.544 169.797 141.115 170.75 143.51C172.47 148.7 173.04 152.93 171.92 158.4C170.25 166.63 167.92 173.25 169.61 181.74C170.24 184.92 172.01 187.8 172.53 190.99C173.34 195.99 169.67 201.51 167.33 205.73C164.23 211.31 162.62 217.17 165.64 223.19C167.2 226.29 168.92 229.01 171.79 231C173.34 232.07 174.99 233 176.5 234.13C179.01 235.97 174.5 238.98 173.55 239.95C159.66 253.83 183.29 266.58 176.71 280.62C173.41 287.62 169.96 292.99 169.45 300.98C168.88 309.98 178.31 314.89 177.04 323.98C176.04 331.38 175.6 335.93 179.04 342.98C181.04 347.04 186.04 349.31 186.8 354.04C187.6 359.04 185.17 362.97 183.71 367.47C181.44 374.47 182.87 380.47 187.25 386.36C189.115 388.643 191.266 390.677 193.65 392.41C197.87 395.78 199.37 399.94 200.56 405.11C202.45 413.39 202.86 422.62 202.7 431.41C205.02 417.6 211.55 428.97 208.98 438.89C215.29 427.41 221.34 412.89 222.17 399.69C222.255 396.204 221.428 392.757 219.77 389.69C217.68 385.37 218.9 382.12 220.37 377.95C223.08 370.24 225.13 361.71 223.37 353.56C222.1 347.67 217.32 339.56 219.78 333.61C221.89 328.49 226.49 324.68 229.78 320.38C237.78 310.03 236.49 296.38 225.3 288.73C223.66 287.48 220.55 286.46 219.24 284.73Z" fill="url(#paint1_linear)"/>
<path d="M202.25 327.27C202.42 309.27 197.88 278.91 196.5 262.53C195.12 246.15 195.5 222.47 195.5 203.53C195.5 184.59 190.5 148.62 190.5 148.62C190.5 148.62 195.08 200.08 194.1 211.62C193.12 223.16 193.18 251.43 195.59 271.78C198 292.13 200.82 315.92 200.05 333.36C199.28 350.8 200.97 366.88 202.75 382.3C203.75 391.43 203.56 410.24 203.19 424.07C203.19 425.62 203.25 427.16 203.28 428.68C203.23 429.85 203.344 431.022 203.62 432.16C204.14 433.67 205.06 433.79 205.42 431.47C206.304 413.465 205.906 395.419 204.23 377.47C200.92 340.28 202.07 345.22 202.25 327.27Z" fill="#EFEEFF"/>
<path d="M217.41 456.17C217.41 456.17 187.75 434.08 181.84 429.45C168.346 419.086 153.39 410.779 137.46 404.8L135.67 393L126.15 400.77C108.7 395.08 93.91 392.42 86.15 390.07C74.26 386.49 48.99 372.13 29.71 353.87L44.6 350.12L20.2 344C14.56 337.39 9.99999 330.47 7.28999 323.52C0.689992 306.52 -0.209962 288.74 0.400038 271.77C1.06671 253.25 1.73337 234.727 2.40004 216.2C5.82004 239.65 9.97002 264.98 23.82 284.2C30.3102 293.095 38.6693 300.461 48.31 305.78L59.55 321.29L54.55 308.98C57.9883 310.574 61.5139 311.973 65.11 313.17C79.98 318.17 94.87 319.99 109.73 324.98C123.81 329.08 138.35 337.87 151.3 347.98C174.44 365.98 188.93 386.4 202.52 416.21C205.31 422.27 217.41 456.17 217.41 456.17Z" fill="url(#paint2_linear)"/>
<path d="M219.13 457.28C218.898 457.343 218.65 457.32 218.434 457.215C218.217 457.11 218.045 456.931 217.95 456.71C217.46 455.89 168.29 374.87 138.23 370.19C77.4199 360.72 38.31 341.19 25.12 313.72C6.99996 276 2.47997 236.27 2.43997 235.88C2.36997 235.22 2.72997 234.74 3.24997 234.79C3.54286 234.862 3.80487 235.027 3.99747 235.259C4.19006 235.491 4.30309 235.779 4.31998 236.08C4.31998 236.47 8.84997 275.71 26.69 312.85C39.46 339.46 77.97 358.47 138.05 367.85C169.05 372.68 217.34 452.2 219.38 455.58C219.551 455.82 219.635 456.11 219.621 456.404C219.606 456.698 219.493 456.978 219.3 457.2C219.247 457.234 219.19 457.261 219.13 457.28V457.28Z" fill="white"/>
<path d="M332.76 428.16C332.76 428.16 419.56 378.37 430.26 280.32L397.4 292.07L431.18 267.85C431.682 254.605 430.838 241.344 428.66 228.27L408.66 237.42L427.05 219.6C420.144 185.893 407.511 153.619 389.7 124.18C389.7 124.18 355.7 152.93 329.19 194.18L333.63 210.7L323.03 204.28C307.78 230.72 296.18 262.62 297.14 297.78C299.65 389.3 332.76 428.16 332.76 428.16Z" fill="url(#paint3_linear)"/>
<path d="M333.12 428.94C333.255 428.88 333.373 428.786 333.46 428.666C333.548 428.547 333.603 428.407 333.62 428.26C351.29 289.43 389.47 129.17 389.85 127.57C389.888 127.352 389.841 127.127 389.719 126.943C389.596 126.758 389.409 126.627 389.193 126.576C388.977 126.525 388.751 126.558 388.559 126.668C388.367 126.779 388.224 126.958 388.16 127.17C387.78 128.77 349.58 289.17 331.9 428.05C331.883 428.165 331.889 428.282 331.918 428.395C331.946 428.507 331.997 428.613 332.067 428.706C332.136 428.799 332.224 428.878 332.324 428.937C332.424 428.996 332.535 429.034 332.65 429.05C332.814 429.061 332.978 429.022 333.12 428.94V428.94Z" fill="#EFEEFF"/>
<path d="M376.61 181.71L407.88 162.31C407.987 162.255 408.081 162.178 408.157 162.084C408.232 161.991 408.288 161.883 408.32 161.767C408.351 161.651 408.359 161.53 408.341 161.411C408.324 161.292 408.282 161.178 408.218 161.076C408.154 160.974 408.07 160.886 407.97 160.818C407.871 160.751 407.759 160.704 407.641 160.682C407.522 160.66 407.401 160.663 407.284 160.69C407.167 160.717 407.056 160.768 406.96 160.84L377.4 179.18L364.86 150C364.77 149.788 364.599 149.62 364.385 149.534C364.171 149.448 363.932 149.45 363.72 149.54C363.615 149.585 363.52 149.65 363.44 149.731C363.361 149.813 363.298 149.91 363.256 150.016C363.214 150.122 363.194 150.235 363.196 150.349C363.199 150.463 363.224 150.576 363.27 150.68L376.61 181.71Z" fill="#EFEEFF"/>
<path d="M423.7 205C423.895 204.895 424.042 204.721 424.113 204.511C424.184 204.302 424.172 204.074 424.08 203.873C423.989 203.672 423.824 203.513 423.62 203.429C423.415 203.345 423.187 203.342 422.98 203.42L366.68 229L340.32 178.89C340.212 178.688 340.029 178.536 339.81 178.467C339.592 178.398 339.355 178.417 339.15 178.52C338.946 178.627 338.793 178.809 338.724 179.029C338.654 179.248 338.675 179.486 338.78 179.69L365.91 231.25L423.7 205Z" fill="#EFEEFF"/>
<path d="M355.84 286.3L431.18 246.69C431.29 246.643 431.389 246.573 431.471 246.486C431.552 246.399 431.615 246.296 431.656 246.183C431.696 246.071 431.712 245.951 431.704 245.832C431.696 245.712 431.663 245.596 431.608 245.49C431.553 245.384 431.477 245.29 431.384 245.215C431.291 245.14 431.183 245.084 431.068 245.052C430.953 245.021 430.832 245.013 430.714 245.03C430.595 245.046 430.482 245.087 430.38 245.15L356.47 284L316.16 218.17C316.033 217.987 315.841 217.86 315.624 217.814C315.406 217.769 315.179 217.808 314.989 217.925C314.8 218.041 314.662 218.226 314.605 218.441C314.547 218.656 314.574 218.884 314.68 219.08L355.84 286.3Z" fill="#EFEEFF"/>
<path d="M427.8 298.73C427.988 298.623 428.13 298.45 428.197 298.244C428.264 298.038 428.252 297.815 428.163 297.617C428.075 297.42 427.916 297.262 427.717 297.176C427.519 297.09 427.295 297.08 427.09 297.15L347.25 333L298.6 277.1C298.525 277.015 298.434 276.945 298.332 276.895C298.231 276.844 298.12 276.815 298.007 276.807C297.893 276.8 297.78 276.815 297.672 276.851C297.565 276.888 297.465 276.945 297.38 277.02C297.295 277.095 297.225 277.186 297.175 277.288C297.124 277.389 297.095 277.5 297.087 277.613C297.08 277.727 297.095 277.84 297.131 277.948C297.168 278.055 297.225 278.155 297.3 278.24L346.79 335.12L427.79 298.73H427.8Z" fill="#EFEEFF"/>
<path d="M338.36 385.64L407.63 351.54C407.812 351.425 407.945 351.247 408.003 351.039C408.061 350.832 408.04 350.611 407.944 350.418C407.848 350.225 407.684 350.075 407.484 349.996C407.284 349.917 407.062 349.915 406.86 349.99L338.86 383.47L301 335.93C300.852 335.765 300.646 335.664 300.426 335.645C300.205 335.627 299.986 335.693 299.812 335.831C299.639 335.969 299.525 336.167 299.493 336.386C299.461 336.605 299.513 336.828 299.64 337.01L338.36 385.64Z" fill="#EFEEFF"/>
<path d="M494.88 113C500.03 117.17 503.33 124.23 505.57 130.48C507.18 134.99 506.5 141.78 507.49 147.03C510.562 136.039 514.336 125.257 518.79 114.75C516.465 112.911 514.914 110.267 514.442 107.34C513.971 104.413 514.614 101.416 516.244 98.9398C517.875 96.4637 520.374 94.6887 523.249 93.9649C526.124 93.2411 529.165 93.6212 531.774 95.0301C534.382 96.4391 536.368 98.7745 537.338 101.576C538.309 104.377 538.195 107.44 537.018 110.161C535.841 112.882 533.687 115.063 530.981 116.273C528.275 117.484 525.213 117.636 522.4 116.7C522.1 116.6 521.83 116.44 521.54 116.32C514.37 133.56 509.72 151.62 504.11 169.32C505.58 167.267 507.222 165.343 509.02 163.57C513.02 159.75 517.65 156.06 522.8 153.84C521.91 151.78 521.793 149.469 522.47 147.33C523.038 145.553 524.12 143.984 525.58 142.823C527.04 141.661 528.811 140.958 530.67 140.804C532.53 140.649 534.393 141.049 536.024 141.954C537.656 142.858 538.983 144.227 539.837 145.885C540.69 147.544 541.033 149.419 540.821 151.272C540.609 153.126 539.852 154.875 538.646 156.298C537.44 157.721 535.839 158.755 534.045 159.268C532.252 159.781 530.346 159.75 528.57 159.18C526.738 158.596 525.132 157.461 523.97 155.93C515.69 158.74 507.97 165.71 502.85 173.23C500.74 179.69 498.47 186.1 495.85 192.39C505.85 185.22 515.44 177.08 527.9 175.32C532.9 174.63 539.7 174.49 543.09 178.93C547.65 185 541.15 190.93 535.61 192.46C527.12 194.76 518.77 193.35 510.31 192.94C506.02 192.57 499.51 192.07 495.31 193.78C494.7 195.21 494.09 196.63 493.44 198.05C488.318 209.186 482.552 220.015 476.17 230.48C481.86 227.66 489.17 227.88 495.17 225.23C493.643 223.115 492.974 220.499 493.299 217.91C493.624 215.321 494.919 212.952 496.922 211.28C498.925 209.608 501.487 208.757 504.092 208.9C506.698 209.042 509.152 210.168 510.96 212.048C512.769 213.929 513.797 216.426 513.837 219.035C513.878 221.643 512.928 224.171 511.178 226.107C509.429 228.043 507.011 229.243 504.411 229.467C501.811 229.69 499.224 228.919 497.17 227.31C495.051 228.265 492.849 229.022 490.59 229.57C484.91 231.02 479.47 232.32 473.96 234.12C468.73 242.59 463.21 250.9 457.52 259.07C468.37 254.44 477.65 247.47 490.04 246.56C495.21 246.13 503.6 246.09 506.87 250.91C512.14 258.68 501.71 262.46 496.03 263.16C486.39 264.47 477.41 262.42 468.03 260.45C464.329 259.602 460.493 259.524 456.76 260.22C453.28 265.213 449.747 270.177 446.16 275.11C441.73 281.22 437.16 287.25 432.69 293.28C441.16 287.78 449.48 283.03 459.78 282.71C459.792 281.876 459.924 281.047 460.17 280.25C460.822 278.182 462.199 276.42 464.047 275.286C465.895 274.152 468.091 273.724 470.229 274.079C472.368 274.435 474.307 275.551 475.688 277.222C477.07 278.892 477.802 281.006 477.75 283.173C477.698 285.341 476.866 287.417 475.405 289.019C473.945 290.622 471.955 291.643 469.802 291.896C467.648 292.149 465.476 291.616 463.685 290.394C461.893 289.173 460.602 287.347 460.05 285.25C453.487 285.11 447.012 286.785 441.34 290.09C437.58 292.35 434.02 295.09 430.04 296.87C423.66 305.36 417.31 313.87 411.19 322.52C427.19 313.52 440.87 311.02 451.95 311.3C461.81 311.55 463.58 321.62 459.18 324.72C456.379 326.555 453.416 328.131 450.33 329.43C444.81 331.64 439.27 333.22 433.2 332.53C427.83 331.64 422.62 328.93 417.3 327.22C414.482 326.506 411.587 326.14 408.68 326.13C403.11 334.13 397.68 342.33 392.77 350.82C389.49 356.427 386.36 362.13 383.38 367.93L383.62 367.73C387.18 364.88 390.62 361.85 394.28 359.18C398.078 356.574 402.429 354.883 406.99 354.24C406.433 351.925 406.778 349.486 407.954 347.416C409.131 345.347 411.051 343.803 413.325 343.098C415.599 342.393 418.056 342.58 420.197 343.621C422.338 344.661 424.002 346.478 424.852 348.702C425.702 350.926 425.674 353.39 424.773 355.593C423.872 357.797 422.166 359.575 420.002 360.566C417.838 361.558 415.377 361.688 413.12 360.931C410.863 360.174 408.979 358.586 407.85 356.49C402.174 357.022 396.785 359.233 392.37 362.84C388.77 365.73 385.22 368.72 381.55 371.53C378.18 378.36 375.07 385.32 372.36 392.44C370.92 396.22 369.62 400.02 368.43 403.84C369.414 403.212 370.344 402.503 371.21 401.72C374.45 398.78 377 394.77 380.21 391.39C385.64 385.59 393.06 381.15 400.98 383.9C400.98 383.9 406.39 386.57 402.98 391.29C397.25 399.12 387.82 400.1 382.53 400.92C377.47 401.54 371.34 403.71 367.68 406.62C364.82 416.17 362.57 425.85 360.44 435.71C360.07 437.39 357.26 436.86 357.44 435.16C359.14 421.743 362.433 408.577 367.25 395.94C367.96 390.64 368.38 385.45 367.18 379.82C366.715 377.529 366.018 375.291 365.1 373.14C363.513 374.364 361.539 374.979 359.537 374.872C357.536 374.766 355.638 373.945 354.19 372.56C352.741 371.174 351.837 369.315 351.642 367.32C351.447 365.325 351.974 363.326 353.126 361.686C354.279 360.046 355.981 358.873 357.924 358.381C359.867 357.888 361.922 358.109 363.717 359.002C365.511 359.895 366.926 361.402 367.705 363.25C368.483 365.097 368.574 367.162 367.96 369.07C367.746 369.729 367.446 370.358 367.07 370.94C368.76 374.18 369.48 379.37 369.72 381.36C370 383.64 370.21 385.9 370.29 388.16C374.904 377.12 380.191 366.373 386.12 355.98C379.8 350.6 372.54 344.79 371.84 335.89C371.62 332.67 370.84 321.96 374.25 319.89C379.01 316.8 386.34 328.58 387.38 331.89C389.71 339.6 389.23 346.42 387.5 353.59L387.86 352.94C393.32 343.49 399.25 334.44 405.43 325.57C406.34 321.15 408.36 316.84 406.85 312.31C406.31 310.66 405.76 309.01 405.23 307.31C403.718 308.647 401.771 309.389 399.753 309.398C397.735 309.408 395.781 308.685 394.256 307.362C392.731 306.04 391.738 304.209 391.462 302.21C391.185 300.21 391.644 298.178 392.753 296.492C393.862 294.806 395.546 293.579 397.491 293.041C399.436 292.502 401.511 292.688 403.329 293.564C405.147 294.44 406.586 295.947 407.377 297.804C408.168 299.661 408.258 301.742 407.63 303.66C407.492 304.074 407.318 304.476 407.11 304.86C409.23 309.21 409.8 315.16 409.01 320.47C415.92 310.75 423.09 301.22 430.27 291.65C427.88 290.57 425.7 288.79 423.1 287.77C416.45 285 411.36 281.91 410.39 273.84C409.88 268.84 412.69 260.12 418.95 261.5C429.7 263.77 429 282 430.52 291C433.96 286.413 437.383 281.803 440.79 277.17C442.13 275.35 443.45 273.53 444.79 271.71C445.71 269.578 446.407 267.356 446.87 265.08C447.43 261.45 448.22 258.01 448.2 254.31C448.236 249.973 447.561 245.659 446.2 241.54C444.363 242.788 442.143 243.343 439.935 243.108C437.727 242.873 435.674 241.861 434.141 240.254C432.609 238.647 431.696 236.549 431.565 234.332C431.435 232.115 432.095 229.924 433.429 228.148C434.763 226.372 436.683 225.127 438.848 224.635C441.013 224.142 443.283 224.434 445.254 225.457C447.225 226.481 448.768 228.171 449.609 230.226C450.451 232.281 450.536 234.568 449.85 236.68C449.501 237.753 448.959 238.752 448.25 239.63C449.89 244.383 450.656 249.394 450.51 254.42C450.531 257.967 450.25 261.51 449.67 265.01C459.42 251.4 468.87 237.52 477.27 223.01C474.14 221.01 469.82 220.23 466.67 218.68C461.85 216.08 457.44 212.16 453.67 208.41C449.67 204.41 443.91 194.41 451 190.59C455.83 187.94 463.27 192.84 466.59 196.21C473.09 202.57 478.25 213.03 477.59 222.56C482.763 213.635 487.447 204.434 491.62 195C491.83 194.54 492.01 194.07 492.21 193.6C492.357 191.415 492.151 189.22 491.6 187.1C490.867 184.703 489.958 182.363 488.88 180.1C487.27 176.69 485.58 172.37 482.88 169.51C481.597 170.868 479.858 171.704 477.996 171.86C476.135 172.015 474.281 171.479 472.79 170.353C471.299 169.227 470.276 167.591 469.916 165.758C469.556 163.925 469.885 162.024 470.84 160.418C471.794 158.812 473.307 157.615 475.09 157.055C476.872 156.495 478.798 156.612 480.499 157.384C482.201 158.156 483.558 159.527 484.31 161.237C485.063 162.947 485.159 164.874 484.58 166.65C484.455 166.992 484.308 167.326 484.14 167.65C487.49 170.9 489.38 175.86 491.27 179.94C492.601 182.672 493.637 185.538 494.36 188.49C499.36 175.67 503.04 162.39 506.89 149.19C504.3 145.65 497.89 144.34 494.44 143.19C486.84 140.76 479.61 137.81 475.86 129.9C470.32 118.29 483.6 103.68 494.88 113Z" fill="url(#paint4_linear)"/>
<path d="M167.24 357.92C167.24 357.92 103.44 357.38 67.04 307.37L89.04 303.72L62.7 300.88C58.3175 293.845 54.6684 286.38 51.81 278.6L65.81 277.47L50 273.4C43.3853 252.991 40.4001 231.58 41.18 210.14C60.4272 214.217 79.0608 220.786 96.61 229.68L99.24 240L103.15 233.27C119.85 242.98 136.21 256.77 146.6 276.17C173.63 326.69 167.24 357.92 167.24 357.92Z" fill="url(#paint5_linear)"/>
<path d="M167.29 358.46C167.196 358.467 167.103 358.451 167.017 358.413C166.931 358.374 166.857 358.315 166.8 358.24C113.86 288.2 42.85 212.78 42.13 212C42.0792 211.951 42.0388 211.892 42.0112 211.826C41.9837 211.761 41.9695 211.691 41.9695 211.62C41.9695 211.549 41.9837 211.479 42.0112 211.414C42.0388 211.348 42.0792 211.289 42.13 211.24C42.2345 211.139 42.3744 211.082 42.52 211.082C42.6656 211.082 42.8055 211.139 42.91 211.24C43.62 211.99 114.67 287.45 167.65 357.55C167.694 357.606 167.725 357.671 167.743 357.74C167.761 357.809 167.764 357.881 167.753 357.951C167.741 358.021 167.716 358.089 167.678 358.149C167.639 358.209 167.589 358.26 167.53 358.3C167.464 358.372 167.382 358.427 167.29 358.46Z" fill="#EFEEFF"/>
<path d="M66.32 237.4L42.88 236.4C42.8082 236.399 42.7374 236.383 42.6717 236.354C42.606 236.325 42.5468 236.283 42.4974 236.231C42.4481 236.179 42.4096 236.118 42.3843 236.05C42.359 235.983 42.3473 235.912 42.35 235.84C42.3603 235.695 42.4266 235.56 42.5348 235.463C42.643 235.366 42.7847 235.314 42.93 235.32L65.09 236.25L63 216.59C62.9917 216.519 62.998 216.447 63.0184 216.378C63.0388 216.309 63.0729 216.245 63.1187 216.19C63.1645 216.135 63.221 216.09 63.2849 216.057C63.3487 216.024 63.4185 216.005 63.49 216C63.6345 215.983 63.7798 216.024 63.8941 216.114C64.0084 216.204 64.0825 216.336 64.1 216.48L66.32 237.4Z" fill="#EFEEFF"/>
<path d="M47.3 264.41C47.2256 264.424 47.149 264.423 47.0751 264.406C47.0013 264.389 46.9319 264.356 46.8715 264.31C46.811 264.265 46.7609 264.207 46.7243 264.14C46.6877 264.074 46.6656 264.001 46.6593 263.925C46.6529 263.85 46.6625 263.774 46.6875 263.702C46.7124 263.63 46.7522 263.565 46.8041 263.51C46.8561 263.455 46.9191 263.411 46.989 263.382C47.059 263.352 47.1343 263.338 47.21 263.34L86.51 260.03L85.64 224.75C85.6387 224.678 85.6516 224.606 85.6781 224.539C85.7045 224.472 85.7439 224.41 85.794 224.358C85.8442 224.306 85.9041 224.265 85.9703 224.236C86.0365 224.207 86.1078 224.191 86.18 224.19C86.2522 224.187 86.3243 224.199 86.392 224.224C86.4598 224.249 86.522 224.288 86.5749 224.337C86.6278 224.386 86.6705 224.445 86.7006 224.511C86.7306 224.577 86.7474 224.648 86.75 224.72L87.64 261.02L47.3 264.41V264.41Z" fill="#EFEEFF"/>
<path d="M110.35 287.89L56.09 289.38C55.9468 289.38 55.8095 289.323 55.7082 289.222C55.6069 289.121 55.55 288.983 55.55 288.84C55.55 288.697 55.6069 288.559 55.7082 288.458C55.8095 288.357 55.9468 288.3 56.09 288.3L109.32 286.83L111.32 238.75C111.328 238.606 111.392 238.471 111.499 238.373C111.605 238.276 111.746 238.225 111.89 238.23C111.962 238.23 112.034 238.245 112.1 238.273C112.166 238.302 112.226 238.343 112.276 238.396C112.325 238.448 112.364 238.51 112.389 238.578C112.413 238.646 112.424 238.718 112.42 238.79L110.35 287.89Z" fill="#EFEEFF"/>
<path d="M74.13 316.63C74.0591 316.637 73.9876 316.629 73.9195 316.608C73.8515 316.587 73.7883 316.553 73.7335 316.507C73.6787 316.462 73.6334 316.406 73.6002 316.343C73.567 316.28 73.5465 316.211 73.54 316.14C73.5334 316.069 73.5409 315.998 73.5619 315.93C73.583 315.862 73.6173 315.798 73.6628 315.744C73.7083 315.689 73.7641 315.643 73.8271 315.61C73.8901 315.577 73.9591 315.557 74.03 315.55L129.63 310.64L139.38 265.4C139.415 265.268 139.498 265.155 139.613 265.081C139.728 265.007 139.865 264.978 140 265C140.071 265.013 140.138 265.04 140.198 265.08C140.258 265.119 140.309 265.17 140.349 265.23C140.389 265.289 140.417 265.356 140.431 265.427C140.445 265.497 140.444 265.57 140.43 265.64L130.52 311.64L74.1 316.64L74.13 316.63Z" fill="#EFEEFF"/>
<path d="M150.92 336.53L101.76 339.16C101.689 339.164 101.618 339.154 101.551 339.13C101.484 339.107 101.422 339.07 101.369 339.023C101.316 338.976 101.273 338.918 101.243 338.854C101.212 338.79 101.194 338.721 101.19 338.65C101.186 338.579 101.196 338.508 101.22 338.441C101.243 338.374 101.28 338.312 101.327 338.259C101.374 338.206 101.432 338.163 101.496 338.133C101.56 338.102 101.629 338.084 101.7 338.08L150 335.49L156.35 298.08C156.379 297.938 156.462 297.813 156.581 297.731C156.701 297.649 156.847 297.616 156.99 297.64C157.061 297.65 157.129 297.674 157.191 297.71C157.252 297.747 157.305 297.796 157.347 297.854C157.39 297.912 157.419 297.978 157.435 298.047C157.451 298.117 157.453 298.19 157.44 298.26L150.92 336.53Z" fill="#EFEEFF"/>
<defs>
<linearGradient id="paint0_linear" x1="447.104" y1="292.465" x2="427.701" y2="472.524" gradientUnits="userSpaceOnUse">
<stop stop-color="#FFC4E6"/>
<stop offset="1" stop-color="#8686FB"/>
</linearGradient>
<linearGradient id="paint1_linear" x1="199.56" y1="438.94" x2="199.56" y2="123.32" gradientUnits="userSpaceOnUse">
<stop stop-color="#8686FB"/>
<stop offset="1" stop-color="#FFC4E6"/>
</linearGradient>
<linearGradient id="paint2_linear" x1="241070" y1="64936.8" x2="245615" y2="106223" gradientUnits="userSpaceOnUse">
<stop stop-color="#FFC4E6"/>
<stop offset="1" stop-color="#8686FB"/>
</linearGradient>
<linearGradient id="paint3_linear" x1="817091" y1="-231286" x2="819422" y2="-178234" gradientUnits="userSpaceOnUse">
<stop stop-color="#FFC4E6"/>
<stop offset="1" stop-color="#8686FB"/>
</linearGradient>
<linearGradient id="paint4_linear" x1="-304120" y1="-101758" x2="-283238" y2="-66823.9" gradientUnits="userSpaceOnUse">
<stop stop-color="#FFC4E6"/>
<stop offset="1" stop-color="#8686FB"/>
</linearGradient>
<linearGradient id="paint5_linear" x1="-478312" y1="23826.7" x2="-473502" y2="40247.2" gradientUnits="userSpaceOnUse">
<stop stop-color="#FFC4E6"/>
<stop offset="1" stop-color="#8686FB"/>
</linearGradient>
</defs>
</svg>
