<svg width="80" height="80" viewBox="0 0 80 80" fill="none" xmlns="http://www.w3.org/2000/svg">
<path d="M26.015 14.845L21.875 14.92C12.52 15.2625 5 22.9875 5 32.42C5 37.995 7.6375 42.96 11.72 46.17C10.5965 48.0906 10.003 50.275 10 52.5C10 59.395 15.605 65 22.5 65H25.4C25.85 63.425 26.65 61.7 27.575 60H22.5C18.37 60 15 56.63 15 52.5C15 48.37 18.37 45 22.5 45H25V42.5C25 39.745 27.2375 37.51 29.765 37.5L32.265 37.6575L32.735 35.5475C33.6725 30.8975 37.755 27.5 42.5 27.5C46.5125 27.5 50.1375 29.9 51.72 33.595L52.42 35.3175L54.6825 35.0775C54.7925 35.055 54.8825 35 55 35C59.13 35 62.49 38.3775 62.5 42.345L62.4225 44.765L64.375 45.24C65.9861 45.6529 67.4137 46.5908 68.4324 47.9055C69.451 49.2202 70.0026 50.8368 70 52.5C70 56.63 66.63 60 62.5 60H60C60 61.825 59.45 63.525 58.6 65H62.5C69.395 65 75 59.395 75 52.5C75 47.45 71.9725 42.95 67.4225 41.015C66.72 34.97 61.6375 30.2425 55.4675 30C54.1592 27.7176 52.2706 25.8217 49.9932 24.5046C47.7159 23.1875 45.1308 22.4959 42.5 22.5C39.7044 22.5061 36.9658 23.2918 34.5921 24.7686C32.2183 26.2454 30.3034 28.3549 29.0625 30.86C25.7425 29.4925 23.36 26.27 23.36 22.4225C23.36 21.0225 23.6525 19.7175 24.22 18.515L26.015 14.845V14.845ZM18.75 20.7825C18.6825 21.3575 18.36 21.825 18.36 22.4225C18.36 27.305 20.83 31.58 24.61 34.14C22.49 35.525 20.83 37.695 20.235 40.235C18.31 40.585 16.585 41.3875 15.0775 42.5C13.504 41.3324 12.2254 39.8131 11.3438 38.0633C10.4622 36.3135 10.002 34.3818 10 32.4225C10 26.8275 13.71 22.3925 18.75 20.7825V20.7825ZM50 50C50 50 45 57.2375 45 60C45 61.3261 45.5268 62.5979 46.4645 63.5355C47.4021 64.4732 48.6739 65 50 65C50.3425 65 50.6925 64.99 51.015 64.9225C53.29 64.4525 55 62.4225 55 60C55 57.2375 50 50 50 50ZM35 57.5C35 57.5 34.2875 58.6325 33.4375 60C33.125 60.4975 32.8325 60.9075 32.5 61.485C32.05 62.2675 31.64 63.025 31.25 63.8275C31.055 64.2275 30.86 64.6225 30.7025 65.005C30.2925 65.97 30 66.865 30 67.5C30 68.8261 30.5268 70.0979 31.4645 71.0355C32.4021 71.9732 33.6739 72.5 35 72.5C36.3261 72.5 37.5979 71.9732 38.5355 71.0355C39.4732 70.0979 40 68.8261 40 67.5C40 66.865 39.7075 65.9675 39.2975 65C39.2575 64.9225 39.2575 64.8525 39.22 64.765C39.08 64.465 38.91 64.14 38.755 63.8275C38.0899 62.5161 37.3598 61.2387 36.5675 60C35.715 58.6325 35 57.5 35 57.5Z" fill="#6456AB"/>
</svg>
