<svg width="50" height="39" viewBox="0 0 50 39" fill="none" xmlns="http://www.w3.org/2000/svg">
<path d="M45 18.325H50V23.325H45C41.55 23.325 38.15 22.45 35 20.825C28.75 24.075 21.25 24.075 15 20.825C11.85 22.45 8.425 23.325 5 23.325H0V18.325H5C8.475 18.325 11.95 17.15 15 15C21.1 19.275 28.9 19.275 35 15C38.05 17.15 41.525 18.325 45 18.325ZM45 3.325H50V8.325H45C41.55 8.325 38.15 7.45 35 5.825C28.75 9.075 21.25 9.075 15 5.825C11.85 7.45 8.425 8.325 5 8.325H0V3.325H5C8.475 3.325 11.95 2.15 15 0C21.1 4.275 28.9 4.275 35 0C38.05 2.15 41.525 3.325 45 3.325ZM45 33.325H50V38.325H45C41.55 38.325 38.15 37.45 35 35.825C28.75 39.075 21.25 39.075 15 35.825C11.85 37.45 8.425 38.325 5 38.325H0V33.325H5C8.475 33.325 11.95 32.15 15 30C21.1 34.275 28.9 34.275 35 30C38.05 32.15 41.525 33.325 45 33.325Z" fill="#6456AB"/>
</svg>
